<?xml version="1.0" encoding="UTF-8"?>
<svg id="Capa_1" data-name="Capa 1" xmlns="http://www.w3.org/2000/svg" viewBox="0 0 1875.96 321.85">
  <defs>
    <style>
      .cls-1 {
        fill: #004388;
      }

      .cls-1, .cls-2, .cls-3 {
        fill-rule: evenodd;
      }

      .cls-2 {
        fill: #104480;
      }

      .cls-3, .cls-4 {
        fill: #d70f16;
      }
    </style>
  </defs>
  <g>
    <g id="Fiscalía">
      <g id="FISCALIA">
        <path class="cls-1" d="M864.73,210.25l-7.88-36.67c-18.38,5.05-47.25,8.85-68.77,8.85-71.4,0-103.42-25.92-103.42-72.4,0-41.41,32.55-71.46,98.71-71.46,24.15,0,48.3,2.21,71.4,6.32l7.34-37.31c-23.1-3.8-49.87-5.69-75.07-5.69-118.66,0-177.46,47.43-177.46,115.08,0,53.11,39.9,102.75,163.8,102.75,33.06,0,65.09-3.8,91.35-9.48h.02ZM998.85,21.34c6.23-10.69,17.78-17.86,31.03-17.86h56.5l126.52,213.41h-54.65c-13.31,0-24.99-7.22-31.16-18-23.26-41.06-78.46-138.84-82.19-148.3-4.2,11.07-90.81,166.3-90.81,166.3h-68.77l113.53-195.55h0ZM1269.32,216.89c-19.8,0-35.86-16.05-35.86-35.86V3.48s68.24,0,68.24,0v177.37h114.98v36.04h-147.36ZM272.18,216.89c-19.8,0-35.86-16.05-35.86-35.86V3.48h68.24v213.41h-32.38ZM35.86,216.89c-19.8,0-35.86-16.06-35.86-35.86V3.48h189.52v34.77h-121.31v55.02h114.44v33.83h-114.44v89.79h-32.38.03ZM575.9,150.81c0-66.71-149.1-52.48-149.1-90.74,0-15.17,19.95-25.92,59.32-25.92,21.52,0,43.57,2.21,63.52,5.69l3.68-36.04c-21-2.21-44.1-3.8-64.05-3.8-85.04,0-134.93,26.24-134.93,64.17,0,70.19,148.58,51.54,148.58,92.32,0,19.6-26.78,28.13-61.43,28.13-25.72,0-54.07-3.48-74.02-7.59l-4.2,38.25c22.04,3.48,47.25,5.05,72.45,5.05,87.13,0,140.17-29.4,140.17-69.56l.02.02ZM1007.46,181.24c-2.76,0-5.07-2.24-5.07-5.01,0-1.39.5-2.76,1.48-3.56l31.93-24.85c4.69-3.62,12.27-3.62,16.96,0l32.1,24.85c.99.79,1.48,2.17,1.48,3.56,0,2.75-2.31,5.01-5.07,5.01h-73.84.02ZM1661.91,21.33c6.23-10.69,17.78-17.86,31.03-17.86h56.5l126.52,213.41h-54.65c-13.31,0-24.99-7.22-31.16-18-23.26-41.06-78.46-138.84-82.19-148.3-4.2,11.07-90.81,166.3-90.81,166.3h-68.77l113.53-195.55ZM1670.5,181.24c-2.76,0-5.07-2.24-5.07-5.01,0-1.39.5-2.76,1.48-3.56l31.93-24.85c4.69-3.62,12.27-3.62,16.96,0l32.1,24.85c.99.79,1.48,2.17,1.48,3.56,0,2.75-2.31,5.01-5.07,5.01h-73.84.02Z"/>
      </g>
    </g>
    <path class="cls-2" d="M1487.65,216.94c-19.8,0-35.86-16.05-35.86-35.86V3.53h23.45c4.85,0,1.92,6.16,5.17,9.76l26.23,29.09c5.72,7.12,13.25,3.06,13.25,7.3l.14,167.26h-32.38Z"/>
    <path class="cls-3" d="M1485.42,8.49h0c-1.1-1.18-1.04-3.07.15-4.16.6-.55,1.39-.88,2.12-.77l23.37,3.92c3.42.59,6.42,3.86,6.72,7.31l2.01,23.69c.05.74-.35,1.5-.95,2.05-1.18,1.09-3.07.99-4.17-.2"/>
  </g>
  <g>
    <path class="cls-4" d="M356.64,269.83h10.25l9.03,24.96c1.12,3.25,2.16,6.69,3.28,10.03h.31c1.12-3.34,2.09-6.78,3.22-10.03l8.84-24.96h10.25v51.08h-8.31v-23.37c0-4.72.72-11.51,1.16-16.24h-.31l-4.12,11.87-8.4,22.94h-5.37l-8.43-22.94-4.06-11.87h-.31c.44,4.73,1.16,11.53,1.16,16.24v23.37h-8.15v-51.08Z"/>
    <path class="cls-4" d="M420.05,269.83h9.06v51.08h-9.06v-51.08Z"/>
    <path class="cls-4" d="M447.31,269.83h9.31l15.87,28.71,5.28,10.9h.31c-.44-5.28-1.16-11.75-1.16-17.43v-22.18h8.62v51.08h-9.31l-15.87-28.76-5.28-10.86h-.31c.44,5.4,1.16,11.56,1.16,17.24v22.37h-8.62v-51.08Z"/>
    <path class="cls-4" d="M503.77,269.83h9.06v51.08h-9.06v-51.08Z"/>
    <path class="cls-4" d="M527.52,314.37l5.28-6.22c3.66,3.48,8.56,5.83,13.31,5.83,5.75,0,8.9-2.61,8.9-6.59,0-4.2-3.3-5.55-7.93-7.51l-6.98-3.03c-5.03-2.09-10.32-6.08-10.32-13.54,0-8.14,7.18-14.4,17.15-14.4,5.97,0,11.75,2.47,15.74,6.51l-4.65,5.75c-3.25-2.77-6.72-4.39-11.09-4.39-4.84,0-8,2.26-8,6,0,4.01,3.89,5.5,8.12,7.23l6.89,2.89c6.08,2.53,10.32,6.37,10.32,13.78,0,8.28-6.87,15.18-18.34,15.18-6.9,0-13.56-2.72-18.4-7.48Z"/>
    <path class="cls-4" d="M587.56,277.46h-14.74v-7.62h38.55v7.62h-14.74v43.45h-9.06v-43.45Z"/>
    <path class="cls-4" d="M625.12,269.83h30.74v7.62h-21.68v13.09h18.37v7.62h-18.37v15.12h22.46v7.62h-31.52v-51.08Z"/>
    <path class="cls-4" d="M672.37,269.83h17.21c10.62,0,18.81,3.75,18.81,15.15s-8.18,15.96-18.81,15.96h-8.15v19.96h-9.06v-51.08ZM688.64,293.7c7,0,10.81-2.91,10.81-8.72s-3.81-7.9-10.81-7.9h-7.22v16.62h7.22ZM687.88,298.53l6.56-5.4,15.95,27.79h-10.18l-12.32-22.38Z"/>
    <path class="cls-4" d="M723.83,269.83h9.06v51.08h-9.06v-51.08Z"/>
    <path class="cls-4" d="M748.4,295.17c0-16.52,9.22-26.27,22.52-26.27s22.52,9.79,22.52,26.27-9.22,26.68-22.52,26.68-22.52-10.15-22.52-26.68ZM784.13,295.17c0-11.46-5.19-18.4-13.21-18.4s-13.21,6.94-13.21,18.4,5.19,18.81,13.21,18.81,13.21-7.34,13.21-18.81Z"/>
    <path class="cls-4" d="M829.8,269.83h16.09c11.34,0,19.74,3.94,19.74,15.74s-8.43,16.56-19.43,16.56h-7.34v18.77h-9.06v-51.08ZM845.45,294.89c7.62,0,11.25-3.03,11.25-9.31s-3.97-8.5-11.56-8.5h-6.28v17.81h6.59Z"/>
    <path class="cls-4" d="M880.23,298.51v-28.68h9.06v29.37c0,11.12,4.15,14.77,10.34,14.77s10.56-3.65,10.56-14.77v-29.37h8.72v28.68c0,16.77-7.43,23.33-19.27,23.33s-19.4-6.56-19.4-23.33ZM894.51,262.62l12.21-10.5,4.91,5.9-13.12,9.12-4-4.53Z"/>
    <path class="cls-4" d="M936.86,269.83h16.34c10.5,0,18.21,3.22,18.21,12.59,0,4.81-2.62,9.5-7.09,11.06v.31c5.65,1.28,9.81,5.22,9.81,12.12,0,10.21-8.37,14.99-19.62,14.99h-17.65v-51.08ZM952.39,290.92c7.12,0,10.15-2.78,10.15-7.22,0-4.94-3.34-6.81-9.97-6.81h-6.65v14.03h6.47ZM953.58,313.85c7.5,0,11.68-2.69,11.68-8.43,0-5.37-4.06-7.72-11.68-7.72h-7.65v16.15h7.65Z"/>
    <path class="cls-4" d="M988.72,269.83h9.06v43.45h21.21v7.62h-30.27v-51.08Z"/>
    <path class="cls-4" d="M1033.15,269.83h9.06v51.08h-9.06v-51.08Z"/>
    <path class="cls-4" d="M1057.72,295.54c0-16.71,10.46-26.65,23.4-26.65,6.4,0,11.5,3.06,14.71,6.47l-4.84,5.84c-2.62-2.62-5.68-4.44-9.68-4.44-8.31,0-14.28,7.03-14.28,18.49s5.5,18.71,14.06,18.71c4.53,0,8.03-2.09,10.9-5.25l4.84,5.69c-4.14,4.81-9.47,7.43-16.09,7.43-12.84,0-23.02-9.4-23.02-26.3Z"/>
    <path class="cls-4" d="M1105.35,295.17c0-16.52,9.22-26.27,22.52-26.27s22.52,9.79,22.52,26.27-9.22,26.68-22.52,26.68-22.52-10.15-22.52-26.68ZM1141.09,295.17c0-11.46-5.19-18.4-13.21-18.4s-13.21,6.94-13.21,18.4,5.19,18.81,13.21,18.81,13.21-7.34,13.21-18.81Z"/>
    <path class="cls-4" d="M1186.76,269.83h13.62c15.65,0,24.9,8.43,24.9,25.33s-9.25,25.74-24.43,25.74h-14.09v-51.08ZM1199.78,313.57c10.28,0,16.18-5.84,16.18-18.4s-5.9-17.99-16.18-17.99h-3.97v36.39h3.97Z"/>
    <path class="cls-4" d="M1240.79,269.83h30.74v7.62h-21.68v13.09h18.37v7.62h-18.37v15.12h22.46v7.62h-31.52v-51.08Z"/>
    <path class="cls-4" d="M1306.21,295.54c0-16.71,10.46-26.65,23.4-26.65,6.4,0,11.5,3.06,14.71,6.47l-4.84,5.84c-2.62-2.62-5.68-4.44-9.68-4.44-8.31,0-14.28,7.03-14.28,18.49s5.5,18.71,14.06,18.71c4.53,0,8.03-2.09,10.9-5.25l4.84,5.69c-4.14,4.81-9.47,7.43-16.09,7.43-12.84,0-23.02-9.4-23.02-26.3Z"/>
    <path class="cls-4" d="M1359.1,269.83h9.06v20.52h20.65v-20.52h9.06v51.08h-9.06v-22.65h-20.65v22.65h-9.06v-51.08Z"/>
    <path class="cls-4" d="M1416.11,269.83h9.06v51.08h-9.06v-51.08Z"/>
    <path class="cls-4" d="M1443.36,269.83h9.06v43.45h21.21v7.62h-30.27v-51.08Z"/>
    <path class="cls-4" d="M1487.8,269.83h30.74v7.62h-21.68v13.09h18.37v7.62h-18.37v15.12h22.46v7.62h-31.52v-51.08Z"/>
  </g>
</svg>